<?xml version="1.0" encoding="UTF-8" standalone="no"?>
<svg
   xmlns:dc="http://purl.org/dc/elements/1.1/"
   xmlns:cc="http://creativecommons.org/ns#"
   xmlns:rdf="http://www.w3.org/1999/02/22-rdf-syntax-ns#"
   xmlns:svg="http://www.w3.org/2000/svg"
   xmlns="http://www.w3.org/2000/svg"
   viewBox="0 0 1284.9387 478.86533"
   height="478.86533"
   width="1284.9387"
   xml:space="preserve"
   id="svg2"
   version="1.1"><metadata
     id="metadata8"><rdf:RDF><cc:Work
         rdf:about=""><dc:format>image/svg+xml</dc:format><dc:type
           rdf:resource="http://purl.org/dc/dcmitype/StillImage" /></cc:Work></rdf:RDF></metadata><defs
     id="defs6"><clipPath
       id="clipPath18"
       clipPathUnits="userSpaceOnUse"><path
         id="path16"
         d="M 0,359.149 H 963.704 V 0 H 0 Z" /></clipPath></defs><g
     transform="matrix(1.3333333,0,0,-1.3333333,0,478.86533)"
     id="g10"><g
       id="g12"><g
         clip-path="url(#clipPath18)"
         id="g14"><g
           transform="translate(194.3514,139.8624)"
           id="g20"><path
             id="path22"
             style="fill:#8f8f8f;fill-opacity:1;fill-rule:nonzero;stroke:none"
             d="m 0,0 c -0.003,2.762 -0.118,5.524 -0.181,8.286 -0.045,0.141 -0.099,0.279 -0.152,0.418 -0.524,5.96 -4.81,10.827 -10.468,12.236 -0.636,0.192 -1.605,0.368 -2.256,0.435 -0.394,0.041 -0.786,0.06 -1.182,0.06 h -2.216 c -1.823,0.01 -3.646,0.027 -5.47,0.027 -15.407,-0.007 -30.813,-0.016 -46.22,-0.025 -0.078,-0.033 -0.158,-0.044 -0.236,-0.071 h -1.326 c -8.298,0 -15.025,-6.727 -15.025,-15.025 V 4.978 c -0.011,-0.106 -0.012,-0.21 0,-0.312 v -0.45 h 0.223 c 0.035,-0.034 0.069,-0.068 0.116,-0.1 4.209,0.007 8.418,0.016 12.627,0.02 14.894,0.014 29.788,0.027 44.682,0.038 0.511,10e-4 1.023,-0.007 1.534,-0.008 6.12,-0.568 7.567,-3.064 7.902,-4.346 0.061,-0.4 0.123,-0.799 0.14,-1.2 0.064,-1.567 0.121,-3.135 0.127,-4.703 0.037,-9.35 0.075,-18.7 0.073,-28.051 -0.001,-2.068 -0.128,-4.138 -0.26,-6.203 -0.03,-0.481 -0.108,-0.93 -0.217,-1.359 -0.072,-0.107 -0.134,-0.224 -0.183,-0.352 -0.403,-1.063 -1.168,-2.216 -2.577,-2.783 -0.065,0.005 -0.128,0.026 -0.193,0.026 h -42.365 c -1.08,0 -2.004,0.76 -2.216,1.819 -0.019,0.096 -0.038,0.199 -0.055,0.305 v 8.538 c 0,0.443 -0.359,0.802 -0.802,0.802 H -83.06 c -0.332,0 -0.628,-0.134 -0.856,-0.341 -0.014,0 -0.027,0 -0.041,-10e-4 0.002,-0.009 10e-4,-0.016 0.002,-0.025 -0.24,-0.233 -0.391,-0.557 -0.391,-0.919 v -2.89 c -0.163,-3.732 -0.184,-7.465 0,-11.2 v -0.53 c 0,-3.42 1.301,-6.526 3.421,-8.879 l -0.028,-0.002 c 0.89,-1.054 1.946,-1.862 3.027,-2.484 1.297,-0.786 2.74,-1.351 4.278,-1.658 1.316,-0.31 2.228,-0.371 2.228,-0.371 h 0.777 c 0.071,-0.005 0.143,-0.01 0.214,-0.015 0.049,0.004 0.099,0.01 0.148,0.015 h 55.187 l 0.144,0.006 c 0.004,-0.001 0.008,-0.002 0.013,-0.003 0.253,0.01 0.506,0.02 0.759,0.03 0.799,0.065 2.257,0.353 2.257,0.353 0.397,-0.022 1.491,0.401 1.491,0.401 4.319,1.576 7.213,4.647 9.172,8.709 0.608,1.262 0.957,2.591 1.055,3.977 0.105,1.502 0.202,3.009 0.203,4.514 C 0.015,-29.769 0.018,-14.885 0,0" /></g><g
           transform="translate(112.8674,119.9666)"
           id="g24"><path
             id="path26"
             style="fill:#8f8f8f;fill-opacity:1;fill-rule:nonzero;stroke:none"
             d="m 0,0 h 26.817 c 1.758,0 3.184,1.425 3.184,3.183 v 9.904 c 0,1.758 -1.426,3.183 -3.184,3.183 H 0 c -1.758,0 -3.183,-1.425 -3.183,-3.183 V 3.183 C -3.183,1.425 -1.758,0 0,0" /></g><g
           transform="translate(75.1977,77.2166)"
           id="g28"><path
             id="path30"
             style="fill:#002c84;fill-opacity:1;fill-rule:nonzero;stroke:none"
             d="m 0,0 c 2.817,0.003 5.634,0.117 8.45,0.179 0.144,0.046 0.285,0.099 0.427,0.152 6.078,0.519 11.041,4.774 12.479,10.389 0.195,0.632 0.375,1.594 0.443,2.239 0.042,0.391 0.062,0.78 0.062,1.174 v 2.199 c 0.009,1.809 0.027,3.619 0.026,5.429 -0.006,15.292 -0.016,30.583 -0.024,45.875 -0.034,0.077 -0.046,0.156 -0.073,0.234 v 1.316 c 0,8.236 -6.861,14.913 -15.323,14.913 H 5.076 c -0.107,0.011 -0.213,0.012 -0.317,0 H 4.3 V 83.878 C 4.265,83.843 4.23,83.809 4.198,83.763 4.205,79.585 4.214,75.407 4.218,71.23 4.232,56.447 4.245,41.664 4.257,26.882 4.257,26.374 4.25,25.867 4.249,25.359 3.67,19.285 1.124,17.849 -0.184,17.516 c -0.407,-0.061 -0.814,-0.122 -1.224,-0.138 -1.597,-0.064 -3.197,-0.121 -4.795,-0.127 -9.536,-0.037 -19.072,-0.074 -28.608,-0.072 -2.109,0.001 -4.221,0.127 -6.327,0.257 -0.49,0.031 -0.948,0.108 -1.386,0.216 -0.108,0.072 -0.228,0.134 -0.358,0.181 -1.084,0.4 -2.26,1.16 -2.839,2.559 0.006,0.064 0.027,0.126 0.027,0.191 v 42.049 c 0,1.072 0.775,1.988 1.855,2.199 0.098,0.019 0.203,0.037 0.311,0.055 h 8.708 c 0.452,0 0.818,0.356 0.818,0.796 v 16.757 c 0,0.33 -0.137,0.624 -0.348,0.85 0,0.014 -10e-4,0.027 -10e-4,0.041 -0.009,-0.002 -0.017,-0.001 -0.026,-0.002 -0.238,0.238 -0.568,0.388 -0.937,0.388 h -2.948 c -3.806,0.162 -7.613,0.182 -11.421,0 h -0.541 c -3.488,0 -6.656,-1.291 -9.056,-3.396 l -0.002,0.029 c -1.075,-0.884 -1.898,-1.933 -2.532,-3.005 -0.803,-1.288 -1.379,-2.719 -1.691,-4.247 -0.317,-1.305 -0.379,-2.211 -0.379,-2.211 v -0.77 c -0.005,-0.071 -0.01,-0.142 -0.016,-0.213 0.005,-0.049 0.011,-0.098 0.016,-0.147 V 14.982 l 0.006,-0.143 c -10e-4,-0.005 -0.002,-0.009 -0.003,-0.013 0.01,-0.252 0.02,-0.503 0.031,-0.754 0.066,-0.793 0.359,-2.24 0.359,-2.24 -0.022,-0.394 0.409,-1.48 0.409,-1.48 1.608,-4.287 4.74,-7.159 8.883,-9.103 1.287,-0.604 2.642,-0.95 4.055,-1.047 C -48.612,0.097 -47.075,0.001 -45.54,0 -30.36,-0.015 -15.18,-0.018 0,0" /></g><g
           transform="translate(54.9071,158.0919)"
           id="g32"><path
             id="path34"
             style="fill:#002c84;fill-opacity:1;fill-rule:nonzero;stroke:none"
             d="m 0,0 v -26.617 c 0,-1.745 1.454,-3.16 3.247,-3.16 h 10.1 c 1.793,0 3.246,1.415 3.246,3.16 V 0 c 0,1.745 -1.453,3.16 -3.246,3.16 H 3.247 C 1.454,3.16 0,1.745 0,0" /></g><g
           transform="translate(11.1051,196.9003)"
           id="g36"><path
             id="path38"
             style="fill:#8f8f8f;fill-opacity:1;fill-rule:nonzero;stroke:none"
             d="m 0,0 c 0.003,-2.797 0.119,-5.594 0.183,-8.391 0.046,-0.143 0.101,-0.283 0.154,-0.424 0.531,-6.036 4.872,-10.965 10.601,-12.392 0.645,-0.194 1.626,-0.372 2.285,-0.44 0.399,-0.042 0.796,-0.061 1.197,-0.061 h 2.244 c 1.847,-0.01 3.694,-0.028 5.54,-0.027 15.603,0.006 31.206,0.016 46.809,0.025 0.079,0.033 0.16,0.045 0.239,0.072 h 1.343 c 8.403,0 15.216,6.813 15.216,15.216 v 1.381 c 0.011,0.107 0.012,0.212 0,0.315 v 0.456 h -0.225 c -0.036,0.034 -0.071,0.069 -0.118,0.101 -4.262,-0.006 -8.525,-0.016 -12.788,-0.02 -15.084,-0.014 -30.167,-0.027 -45.251,-0.038 -0.518,-10e-4 -1.036,0.007 -1.553,0.008 -6.198,0.575 -7.664,3.103 -8.003,4.402 -0.062,0.404 -0.125,0.809 -0.142,1.215 -0.065,1.586 -0.123,3.175 -0.129,4.762 -0.037,9.47 -0.076,18.939 -0.073,28.409 0,2.094 0.13,4.191 0.262,6.282 0.031,0.487 0.11,0.942 0.22,1.376 0.074,0.108 0.137,0.227 0.186,0.356 0.408,1.077 1.183,2.244 2.61,2.819 0.066,-0.005 0.129,-0.026 0.196,-0.026 h 42.904 c 1.094,0 2.029,-0.77 2.244,-1.843 0.02,-0.097 0.038,-0.201 0.056,-0.308 v -8.648 c 0,-0.448 0.364,-0.812 0.812,-0.812 h 17.099 c 0.336,0 0.636,0.136 0.867,0.346 0.014,0 0.028,0 0.041,0.001 -10e-4,0.009 0,0.016 -0.002,0.025 0.243,0.237 0.396,0.565 0.396,0.931 v 2.927 c 0.166,3.78 0.187,7.56 0,11.342 v 0.537 c 0,3.464 -1.317,6.609 -3.464,8.993 l 0.029,0.002 c -0.902,1.067 -1.972,1.885 -3.066,2.515 -1.314,0.796 -2.775,1.368 -4.333,1.679 -1.332,0.314 -2.257,0.376 -2.257,0.376 h -0.786 c -0.072,0.005 -0.145,0.01 -0.217,0.016 -0.05,-0.005 -0.1,-0.011 -0.149,-0.016 h -55.89 l -0.146,-0.006 c -0.005,10e-4 -0.009,0.002 -0.014,0.003 -0.256,-0.01 -0.512,-0.02 -0.769,-0.031 -0.809,-0.065 -2.285,-0.357 -2.285,-0.357 -0.402,0.023 -1.51,-0.406 -1.51,-0.406 C 6.188,61.046 3.258,57.936 1.274,53.822 0.658,52.544 0.305,51.198 0.206,49.794 0.099,48.273 0.001,46.747 0,45.223 -0.015,30.149 -0.019,15.074 0,0" /></g><g
           transform="translate(93.6272,217.0495)"
           id="g40"><path
             id="path42"
             style="fill:#8f8f8f;fill-opacity:1;fill-rule:nonzero;stroke:none"
             d="m 0,0 h -27.159 c -1.78,0 -3.224,-1.443 -3.224,-3.224 v -10.03 c 0,-1.78 1.444,-3.224 3.224,-3.224 H 0 c 1.781,0 3.224,1.444 3.224,3.224 v 10.03 C 3.224,-1.443 1.781,0 0,0" /></g><g
           transform="translate(131.3125,260.3715)"
           id="g44"><path
             id="path46"
             style="fill:#002c84;fill-opacity:1;fill-rule:nonzero;stroke:none"
             d="m 0,0 c -2.793,-0.003 -5.586,-0.119 -8.378,-0.183 -0.143,-0.046 -0.283,-0.1 -0.424,-0.154 -6.026,-0.529 -10.947,-4.864 -12.373,-10.584 -0.193,-0.644 -0.371,-1.624 -0.439,-2.282 -0.041,-0.398 -0.061,-0.794 -0.061,-1.195 v -2.24 c -0.009,-1.844 -0.027,-3.688 -0.026,-5.532 0.006,-15.579 0.015,-31.158 0.024,-46.737 0.033,-0.078 0.045,-0.159 0.072,-0.239 v -1.34 c 0,-8.391 6.802,-15.193 15.193,-15.193 h 1.379 c 0.106,-0.011 0.212,-0.012 0.315,0 h 0.454 v 0.225 c 0.035,0.036 0.07,0.07 0.102,0.117 -0.007,4.256 -0.016,8.513 -0.02,12.769 -0.014,15.06 -0.027,30.121 -0.039,45.181 0,0.517 0.007,1.034 0.008,1.551 0.575,6.189 3.099,7.652 4.395,7.991 0.404,0.062 0.808,0.124 1.214,0.141 1.584,0.065 3.169,0.123 4.755,0.129 9.455,0.037 18.909,0.076 28.364,0.073 2.092,0 4.185,-0.129 6.273,-0.262 0.486,-0.031 0.941,-0.11 1.374,-0.22 0.108,-0.073 0.227,-0.136 0.356,-0.185 1.074,-0.407 2.24,-1.181 2.814,-2.606 -0.005,-0.066 -0.026,-0.129 -0.026,-0.195 v -42.839 c 0,-1.092 -0.769,-2.025 -1.84,-2.24 -0.096,-0.02 -0.201,-0.038 -0.308,-0.056 h -8.634 c -0.448,0 -0.811,-0.363 -0.811,-0.811 v -17.072 c 0,-0.336 0.136,-0.635 0.345,-0.866 0,-0.014 10e-4,-0.028 10e-4,-0.041 0.009,10e-4 0.017,0 0.026,0.002 0.236,-0.243 0.564,-0.396 0.929,-0.396 h 2.923 c 3.773,-0.165 7.548,-0.186 11.324,0 h 0.536 c 3.458,0 6.599,1.315 8.979,3.46 l 0.002,-0.029 c 1.066,0.9 1.882,1.968 2.511,3.06 0.795,1.313 1.367,2.771 1.677,4.327 0.314,1.33 0.375,2.253 0.375,2.253 v 0.785 c 0.005,0.072 0.01,0.145 0.016,0.217 -0.005,0.05 -0.011,0.099 -0.016,0.149 v 55.804 l -0.005,0.146 c 0,0.004 0.002,0.008 0.002,0.013 -0.01,0.256 -0.02,0.512 -0.03,0.768 -0.066,0.808 -0.357,2.281 -0.357,2.281 0.023,0.402 -0.405,1.509 -0.405,1.509 -1.594,4.367 -4.7,7.293 -8.807,9.274 -1.276,0.615 -2.62,0.968 -4.021,1.066 C 48.199,-0.099 46.675,-0.001 45.153,0 30.102,0.015 15.051,0.018 0,0" /></g><g
           transform="translate(151.4307,177.9766)"
           id="g48"><path
             id="path50"
             style="fill:#002c84;fill-opacity:1;fill-rule:nonzero;stroke:none"
             d="m 0,0 v 27.117 c 0,1.778 -1.441,3.219 -3.219,3.219 h -10.014 c -1.778,0 -3.219,-1.441 -3.219,-3.219 V 0 c 0,-1.778 1.441,-3.219 3.219,-3.219 H -3.219 C -1.441,-3.219 0,-1.778 0,0" /></g><path
           id="path52"
           style="fill:#8f8f8f;fill-opacity:1;fill-rule:nonzero;stroke:none"
           d="m 923.877,211.087 h 31.825 v 12.391 h -31.825 z" /><path
           id="path54"
           style="fill:#002c84;fill-opacity:1;fill-rule:nonzero;stroke:none"
           d="m 199.984,211.087 h 31.825 v 12.391 h -31.825 z" /><path
           id="path56"
           style="fill:#8f8f8f;fill-opacity:1;fill-rule:nonzero;stroke:none"
           d="m 316.332,207.281 h 20.116 v 3.489 h -20.116 z" /><g
           transform="translate(371.617,180.6778)"
           id="g58"><path
             id="path60"
             style="fill:#002c84;fill-opacity:1;fill-rule:nonzero;stroke:none"
             d="m 0,0 h 63.66 c 3.149,0 5.702,2.553 5.702,5.702 v 8.511 c 0,3.149 -2.553,5.702 -5.702,5.702 H 0 c -3.149,0 -5.702,-2.553 -5.702,-5.702 V 5.702 C -5.702,2.553 -3.149,0 0,0" /></g><g
           transform="translate(234.6446,108.106)"
           id="g62"><path
             id="path64"
             style="fill:#002c84;fill-opacity:1;fill-rule:nonzero;stroke:none"
             d="m 0,0 h 5.866 v -4.501 c -1.525,-1.181 -3.283,-1.77 -5.276,-1.77 -1.525,0 -2.865,0.35 -4.021,1.05 -1.156,0.701 -2.048,1.655 -2.675,2.86 -0.627,1.205 -0.941,2.546 -0.941,4.021 v 0.074 c 0,1.402 0.319,2.712 0.96,3.929 0.639,1.218 1.524,2.19 2.656,2.915 1.131,0.726 2.398,1.088 3.8,1.088 1.23,0 2.312,-0.196 3.247,-0.59 C 4.55,8.683 5.472,8.104 6.383,7.342 L 8.56,9.925 c -1.157,0.983 -2.38,1.721 -3.672,2.214 -1.291,0.491 -2.798,0.737 -4.519,0.737 -2.14,0 -4.058,-0.504 -5.756,-1.513 -1.696,-1.009 -3.019,-2.367 -3.966,-4.076 -0.947,-1.71 -1.42,-3.56 -1.42,-5.553 V 1.66 c 0,-2.065 0.467,-3.941 1.402,-5.626 0.934,-1.685 2.256,-3.013 3.966,-3.984 1.709,-0.973 3.658,-1.458 5.848,-1.458 1.77,0 3.406,0.296 4.907,0.886 1.5,0.59 2.828,1.389 3.984,2.398 V 2.804 L 0,2.804 Z" /></g><g
           transform="translate(234.6446,108.106)"
           id="g66"><path
             id="path68"
             style="fill:none;stroke:#002c84;stroke-width:0.75;stroke-linecap:butt;stroke-linejoin:miter;stroke-miterlimit:10;stroke-dasharray:none;stroke-opacity:1"
             d="m 0,0 h 5.866 v -4.501 c -1.525,-1.181 -3.283,-1.77 -5.276,-1.77 -1.525,0 -2.865,0.35 -4.021,1.05 -1.156,0.701 -2.048,1.655 -2.675,2.86 -0.627,1.205 -0.941,2.546 -0.941,4.021 v 0.074 c 0,1.402 0.319,2.712 0.96,3.929 0.639,1.218 1.524,2.19 2.656,2.915 1.131,0.726 2.398,1.088 3.8,1.088 1.23,0 2.312,-0.196 3.247,-0.59 C 4.55,8.683 5.472,8.104 6.383,7.342 L 8.56,9.925 c -1.157,0.983 -2.38,1.721 -3.672,2.214 -1.291,0.491 -2.798,0.737 -4.519,0.737 -2.14,0 -4.058,-0.504 -5.756,-1.513 -1.696,-1.009 -3.019,-2.367 -3.966,-4.076 -0.947,-1.71 -1.42,-3.56 -1.42,-5.553 V 1.66 c 0,-2.065 0.467,-3.941 1.402,-5.626 0.934,-1.685 2.256,-3.013 3.966,-3.984 1.709,-0.973 3.658,-1.458 5.848,-1.458 1.77,0 3.406,0.296 4.907,0.886 1.5,0.59 2.828,1.389 3.984,2.398 V 2.804 L 0,2.804 Z" /></g><g
           transform="translate(267.5909,108.6226)"
           id="g70"><path
             id="path72"
             style="fill:#002c84;fill-opacity:1;fill-rule:nonzero;stroke:none"
             d="M 0,0 H 11.659 V 2.988 H 0 v 6.199 h 12.876 v 3.172 H -3.652 V -9.519 h 16.713 v 3.173 H 0 Z" /></g><g
           transform="translate(267.5909,108.6226)"
           id="g74"><path
             id="path76"
             style="fill:none;stroke:#002c84;stroke-width:0.75;stroke-linecap:butt;stroke-linejoin:miter;stroke-miterlimit:10;stroke-dasharray:none;stroke-opacity:1"
             d="M 0,0 H 11.659 V 2.988 H 0 v 6.199 h 12.876 v 3.172 H -3.652 V -9.519 h 16.713 v 3.173 H 0 Z" /></g><g
           transform="translate(315.959,105.4127)"
           id="g78"><path
             id="path80"
             style="fill:#002c84;fill-opacity:1;fill-rule:nonzero;stroke:none"
             d="m 0,0 -12.286,15.569 h -3.431 V -6.309 h 3.653 V 9.556 L 0.443,-6.309 H 3.652 V 15.569 H 0 Z" /></g><g
           transform="translate(315.959,105.4127)"
           id="g82"><path
             id="path84"
             style="fill:none;stroke:#002c84;stroke-width:0.75;stroke-linecap:butt;stroke-linejoin:miter;stroke-miterlimit:10;stroke-dasharray:none;stroke-opacity:1"
             d="m 0,0 -12.286,15.569 h -3.431 V -6.309 h 3.653 V 9.556 L 0.443,-6.309 H 3.652 V 15.569 H 0 Z" /></g><g
           transform="translate(355.4356,108.6226)"
           id="g86"><path
             id="path88"
             style="fill:#002c84;fill-opacity:1;fill-rule:nonzero;stroke:none"
             d="m 0,0 c 0,-2.14 -0.516,-3.763 -1.549,-4.87 -1.034,-1.107 -2.448,-1.66 -4.243,-1.66 -1.821,0 -3.253,0.565 -4.298,1.697 -1.046,1.131 -1.568,2.767 -1.568,4.907 v 12.285 h -3.727 V 0 c 0,-3.246 0.849,-5.706 2.546,-7.379 1.697,-1.673 4.022,-2.509 6.973,-2.509 3.001,0 5.355,0.843 7.065,2.528 1.71,1.684 2.564,4.174 2.564,7.47 v 12.249 l -3.763,0 z" /></g><g
           transform="translate(355.4356,108.6226)"
           id="g90"><path
             id="path92"
             style="fill:none;stroke:#002c84;stroke-width:0.75;stroke-linecap:butt;stroke-linejoin:miter;stroke-miterlimit:10;stroke-dasharray:none;stroke-opacity:1"
             d="m 0,0 c 0,-2.14 -0.516,-3.763 -1.549,-4.87 -1.034,-1.107 -2.448,-1.66 -4.243,-1.66 -1.821,0 -3.253,0.565 -4.298,1.697 -1.046,1.131 -1.568,2.767 -1.568,4.907 v 12.285 h -3.727 V 0 c 0,-3.246 0.849,-5.706 2.546,-7.379 1.697,-1.673 4.022,-2.509 6.973,-2.509 3.001,0 5.355,0.843 7.065,2.528 1.71,1.684 2.564,4.174 2.564,7.47 v 12.249 l -3.763,0 z" /></g><path
           id="path94"
           style="fill:#002c84;fill-opacity:1;fill-rule:nonzero;stroke:#002c84;stroke-width:0.75;stroke-linecap:butt;stroke-linejoin:miter;stroke-miterlimit:10;stroke-dasharray:none;stroke-opacity:1"
           d="m 379.823,99.104 h 3.726 v 21.878 h -3.726 z" /><g
           transform="translate(420.2583,105.4127)"
           id="g96"><path
             id="path98"
             style="fill:#002c84;fill-opacity:1;fill-rule:nonzero;stroke:none"
             d="m 0,0 -12.286,15.569 h -3.431 V -6.309 h 3.653 V 9.556 L 0.443,-6.309 H 3.652 V 15.569 H 0 Z" /></g><g
           transform="translate(420.2583,105.4127)"
           id="g100"><path
             id="path102"
             style="fill:none;stroke:#002c84;stroke-width:0.75;stroke-linecap:butt;stroke-linejoin:miter;stroke-miterlimit:10;stroke-dasharray:none;stroke-opacity:1"
             d="m 0,0 -12.286,15.569 h -3.431 V -6.309 h 3.653 V 9.556 L 0.443,-6.309 H 3.652 V 15.569 H 0 Z" /></g><g
           transform="translate(448.3716,108.6226)"
           id="g104"><path
             id="path106"
             style="fill:#002c84;fill-opacity:1;fill-rule:nonzero;stroke:none"
             d="M 0,0 H 11.659 V 2.988 H 0 v 6.199 h 12.876 v 3.172 H -3.652 V -9.519 h 16.713 v 3.173 H 0 Z" /></g><g
           transform="translate(448.3716,108.6226)"
           id="g108"><path
             id="path110"
             style="fill:none;stroke:#002c84;stroke-width:0.75;stroke-linecap:butt;stroke-linejoin:miter;stroke-miterlimit:10;stroke-dasharray:none;stroke-opacity:1"
             d="M 0,0 H 11.659 V 2.988 H 0 v 6.199 h 12.876 v 3.172 H -3.652 V -9.519 h 16.713 v 3.173 H 0 Z" /></g><g
           transform="translate(512.8624,108.106)"
           id="g112"><path
             id="path114"
             style="fill:#8f8f8f;fill-opacity:1;fill-rule:nonzero;stroke:none"
             d="m 0,0 h 5.866 v -4.501 c -1.525,-1.181 -3.284,-1.77 -5.276,-1.77 -1.526,0 -2.865,0.35 -4.022,1.05 -1.156,0.701 -2.047,1.655 -2.674,2.86 -0.627,1.205 -0.941,2.546 -0.941,4.021 v 0.074 c 0,1.402 0.319,2.712 0.959,3.929 0.64,1.218 1.525,2.19 2.656,2.915 1.132,0.726 2.399,1.088 3.801,1.088 1.23,0 2.312,-0.196 3.246,-0.59 C 4.55,8.683 5.473,8.104 6.383,7.342 L 8.56,9.925 c -1.157,0.983 -2.38,1.721 -3.671,2.214 -1.292,0.491 -2.799,0.737 -4.52,0.737 -2.14,0 -4.058,-0.504 -5.756,-1.513 -1.697,-1.009 -3.019,-2.367 -3.966,-4.076 -0.947,-1.71 -1.42,-3.56 -1.42,-5.553 V 1.66 c 0,-2.065 0.466,-3.941 1.402,-5.626 0.934,-1.685 2.256,-3.013 3.966,-3.984 1.709,-0.973 3.658,-1.458 5.847,-1.458 1.772,0 3.407,0.296 4.908,0.886 1.5,0.59 2.828,1.389 3.984,2.398 V 2.804 L 0,2.804 Z" /></g><g
           transform="translate(545.8458,120.982)"
           id="g116"><path
             id="path118"
             style="fill:#8f8f8f;fill-opacity:1;fill-rule:nonzero;stroke:none"
             d="m 0,0 h -3.689 v -21.878 h 15.495 v 3.247 H 0 Z" /></g><g
           transform="translate(593.4756,105.9478)"
           id="g120"><path
             id="path122"
             style="fill:#8f8f8f;fill-opacity:1;fill-rule:nonzero;stroke:none"
             d="m 0,0 c -0.641,-1.218 -1.525,-2.177 -2.657,-2.878 -1.131,-0.701 -2.41,-1.051 -3.837,-1.051 -1.451,0 -2.748,0.363 -3.892,1.088 -1.144,0.726 -2.036,1.697 -2.675,2.915 -0.64,1.217 -0.96,2.528 -0.96,3.929 0,1.451 0.32,2.779 0.96,3.984 0.639,1.205 1.525,2.159 2.657,2.86 1.131,0.701 2.41,1.051 3.837,1.051 1.451,0 2.748,-0.363 3.892,-1.088 C -1.531,10.084 -0.641,9.119 0,7.914 0.639,6.708 0.959,5.405 0.959,4.003 0.959,2.552 0.639,1.218 0,0 m -0.904,13.799 c -1.71,0.922 -3.574,1.383 -5.59,1.383 -2.017,0 -3.892,-0.467 -5.626,-1.402 -1.734,-0.935 -3.117,-2.251 -4.151,-3.948 -1.033,-1.697 -1.549,-3.652 -1.549,-5.866 0,-2.041 0.479,-3.917 1.438,-5.626 0.96,-1.71 2.294,-3.069 4.004,-4.077 1.709,-1.009 3.646,-1.513 5.811,-1.513 2.139,0 4.07,0.504 5.792,1.513 1.721,1.008 3.068,2.374 4.04,4.095 0.971,1.722 1.457,3.591 1.457,5.608 0,2.238 -0.511,4.206 -1.531,5.903 -1.021,1.697 -2.386,3.007 -4.095,3.93" /></g><g
           transform="translate(632.8047,105.4498)"
           id="g124"><path
             id="path126"
             style="fill:#8f8f8f;fill-opacity:1;fill-rule:nonzero;stroke:none"
             d="M 0,0 C 0,-1.033 -0.412,-1.845 -1.235,-2.435 -2.06,-3.025 -3.21,-3.32 -4.686,-3.32 h -6.493 v 6.677 h 6.493 C -3.21,3.357 -2.06,3.068 -1.235,2.49 -0.412,1.912 0,1.094 0,0.037 Z m -11.179,12.544 h 5.829 c 1.353,0 2.411,-0.283 3.173,-0.849 0.763,-0.566 1.144,-1.328 1.144,-2.287 V 9.334 C -1.033,8.276 -1.42,7.471 -2.195,6.918 -2.97,6.364 -4.009,6.088 -5.312,6.088 h -5.867 z M -1.033,5.018 c 1.132,0.393 2.029,1.008 2.693,1.844 0.664,0.836 0.996,1.894 0.996,3.173 v 0.037 c 0,1.5 -0.467,2.694 -1.401,3.578 -1.402,1.28 -3.37,1.919 -5.903,1.919 H -14.831 V -6.346 h 10.477 c 2.558,0 4.551,0.517 5.978,1.55 1.426,1.033 2.14,2.483 2.14,4.354 v 0.073 C 3.764,1.058 3.333,2.214 2.473,3.1 1.611,3.984 0.443,4.624 -1.033,5.018" /></g><g
           transform="translate(661.2862,106.815)"
           id="g128"><path
             id="path130"
             style="fill:#8f8f8f;fill-opacity:1;fill-rule:nonzero;stroke:none"
             d="M 0,0 3.985,9.076 7.97,0 Z M 1.882,14.241 -7.821,-7.711 h 4.648 l 1.956,4.538 H 9.187 l 1.956,-4.538 h 4.758 L 6.162,14.241 Z" /></g><g
           transform="translate(699.1407,120.982)"
           id="g132"><path
             id="path134"
             style="fill:#8f8f8f;fill-opacity:1;fill-rule:nonzero;stroke:none"
             d="m 0,0 h -3.689 v -21.878 h 15.495 v 3.247 H 0 Z" /></g><g
           transform="translate(761.8233,108.106)"
           id="g136"><path
             id="path138"
             style="fill:#002c84;fill-opacity:1;fill-rule:nonzero;stroke:none"
             d="m 0,0 h 5.866 v -4.501 c -1.525,-1.181 -3.284,-1.77 -5.276,-1.77 -1.526,0 -2.865,0.35 -4.022,1.05 -1.156,0.701 -2.047,1.655 -2.674,2.86 -0.627,1.205 -0.941,2.546 -0.941,4.021 v 0.074 c 0,1.402 0.319,2.712 0.959,3.929 0.64,1.218 1.526,2.19 2.656,2.915 1.132,0.726 2.399,1.088 3.801,1.088 1.23,0 2.312,-0.196 3.246,-0.59 C 4.55,8.683 5.473,8.104 6.383,7.342 L 8.56,9.925 c -1.157,0.983 -2.38,1.721 -3.671,2.214 -1.292,0.491 -2.799,0.737 -4.52,0.737 -2.14,0 -4.058,-0.504 -5.756,-1.513 -1.697,-1.009 -3.019,-2.367 -3.966,-4.076 -0.947,-1.71 -1.42,-3.56 -1.42,-5.553 V 1.66 c 0,-2.065 0.466,-3.941 1.402,-5.626 0.934,-1.685 2.256,-3.013 3.966,-3.984 1.709,-0.973 3.658,-1.458 5.847,-1.458 1.772,0 3.407,0.296 4.908,0.886 1.5,0.59 2.828,1.389 3.984,2.398 V 2.804 L 0,2.804 Z" /></g><g
           transform="translate(761.8233,108.106)"
           id="g140"><path
             id="path142"
             style="fill:none;stroke:#002c84;stroke-width:0.75;stroke-linecap:butt;stroke-linejoin:miter;stroke-miterlimit:10;stroke-dasharray:none;stroke-opacity:1"
             d="m 0,0 h 5.866 v -4.501 c -1.525,-1.181 -3.284,-1.77 -5.276,-1.77 -1.526,0 -2.865,0.35 -4.022,1.05 -1.156,0.701 -2.047,1.655 -2.674,2.86 -0.627,1.205 -0.941,2.546 -0.941,4.021 v 0.074 c 0,1.402 0.319,2.712 0.959,3.929 0.64,1.218 1.526,2.19 2.656,2.915 1.132,0.726 2.399,1.088 3.801,1.088 1.23,0 2.312,-0.196 3.246,-0.59 C 4.55,8.683 5.473,8.104 6.383,7.342 L 8.56,9.925 c -1.157,0.983 -2.38,1.721 -3.671,2.214 -1.292,0.491 -2.799,0.737 -4.52,0.737 -2.14,0 -4.058,-0.504 -5.756,-1.513 -1.697,-1.009 -3.019,-2.367 -3.966,-4.076 -0.947,-1.71 -1.42,-3.56 -1.42,-5.553 V 1.66 c 0,-2.065 0.466,-3.941 1.402,-5.626 0.934,-1.685 2.256,-3.013 3.966,-3.984 1.709,-0.973 3.658,-1.458 5.847,-1.458 1.772,0 3.407,0.296 4.908,0.886 1.5,0.59 2.828,1.389 3.984,2.398 V 2.804 L 0,2.804 Z" /></g><g
           transform="translate(794.8438,109.9507)"
           id="g144"><path
             id="path146"
             style="fill:#002c84;fill-opacity:1;fill-rule:nonzero;stroke:none"
             d="m 0,0 v 7.821 h 5.792 c 1.55,0 2.767,-0.344 3.652,-1.032 C 10.33,6.1 10.772,5.152 10.772,3.948 V 3.911 C 10.772,2.73 10.323,1.783 9.426,1.07 8.528,0.356 7.292,0 5.718,0 Z m 12.949,-0.11 c 1.009,1.106 1.513,2.508 1.513,4.206 v 0.073 c 0,1.919 -0.578,3.456 -1.733,4.612 -1.55,1.5 -3.789,2.25 -6.715,2.25 H -3.727 V -10.847 H 0 v 7.896 h 5.054 l 5.681,-7.896 h 4.318 l -6.199,8.523 c 1.721,0.369 3.086,1.106 4.095,2.214" /></g><g
           transform="translate(794.8438,109.9507)"
           id="g148"><path
             id="path150"
             style="fill:none;stroke:#002c84;stroke-width:0.75;stroke-linecap:butt;stroke-linejoin:miter;stroke-miterlimit:10;stroke-dasharray:none;stroke-opacity:1"
             d="m 0,0 v 7.821 h 5.792 c 1.55,0 2.767,-0.344 3.652,-1.032 C 10.33,6.1 10.772,5.152 10.772,3.948 V 3.911 C 10.772,2.73 10.323,1.783 9.426,1.07 8.528,0.356 7.292,0 5.718,0 Z m 12.949,-0.11 c 1.009,1.106 1.513,2.508 1.513,4.206 v 0.073 c 0,1.919 -0.578,3.456 -1.733,4.612 -1.55,1.5 -3.789,2.25 -6.715,2.25 H -3.727 V -10.847 H 0 v 7.896 h 5.054 l 5.681,-7.896 h 4.318 l -6.199,8.523 c 1.721,0.369 3.086,1.106 4.095,2.214 z" /></g><g
           transform="translate(845.8682,105.9478)"
           id="g152"><path
             id="path154"
             style="fill:#002c84;fill-opacity:1;fill-rule:nonzero;stroke:none"
             d="m 0,0 c -0.641,-1.218 -1.525,-2.177 -2.657,-2.878 -1.131,-0.701 -2.41,-1.051 -3.837,-1.051 -1.451,0 -2.748,0.363 -3.892,1.088 -1.144,0.726 -2.036,1.697 -2.675,2.915 -0.64,1.217 -0.96,2.528 -0.96,3.929 0,1.451 0.32,2.779 0.96,3.984 0.639,1.205 1.525,2.159 2.657,2.86 1.131,0.701 2.41,1.051 3.837,1.051 1.451,0 2.748,-0.363 3.892,-1.088 C -1.531,10.084 -0.641,9.119 0,7.914 0.639,6.708 0.959,5.405 0.959,4.003 0.959,2.552 0.639,1.218 0,0 m -0.904,13.799 c -1.71,0.922 -3.574,1.383 -5.59,1.383 -2.017,0 -3.892,-0.467 -5.626,-1.402 -1.734,-0.935 -3.117,-2.251 -4.151,-3.948 -1.033,-1.697 -1.549,-3.652 -1.549,-5.866 0,-2.041 0.479,-3.917 1.438,-5.626 0.96,-1.71 2.294,-3.069 4.004,-4.077 1.709,-1.009 3.646,-1.513 5.811,-1.513 2.139,0 4.07,0.504 5.792,1.513 1.721,1.008 3.068,2.374 4.04,4.095 0.971,1.722 1.457,3.591 1.457,5.608 0,2.238 -0.511,4.206 -1.531,5.903 -1.021,1.697 -2.386,3.007 -4.095,3.93" /></g><g
           transform="translate(845.8682,105.9478)"
           id="g156"><path
             id="path158"
             style="fill:none;stroke:#002c84;stroke-width:0.75;stroke-linecap:butt;stroke-linejoin:miter;stroke-miterlimit:10;stroke-dasharray:none;stroke-opacity:1"
             d="m 0,0 c -0.641,-1.218 -1.525,-2.177 -2.657,-2.878 -1.131,-0.701 -2.41,-1.051 -3.837,-1.051 -1.451,0 -2.748,0.363 -3.892,1.088 -1.144,0.726 -2.036,1.697 -2.675,2.915 -0.64,1.217 -0.96,2.528 -0.96,3.929 0,1.451 0.32,2.779 0.96,3.984 0.639,1.205 1.525,2.159 2.657,2.86 1.131,0.701 2.41,1.051 3.837,1.051 1.451,0 2.748,-0.363 3.892,-1.088 C -1.531,10.084 -0.641,9.119 0,7.914 0.639,6.708 0.959,5.405 0.959,4.003 0.959,2.552 0.639,1.218 0,0 Z m -0.904,13.799 c -1.71,0.922 -3.574,1.383 -5.59,1.383 -2.017,0 -3.892,-0.467 -5.626,-1.402 -1.734,-0.935 -3.117,-2.251 -4.151,-3.948 -1.033,-1.697 -1.549,-3.652 -1.549,-5.866 0,-2.041 0.479,-3.917 1.438,-5.626 0.96,-1.71 2.294,-3.069 4.004,-4.077 1.709,-1.009 3.646,-1.513 5.811,-1.513 2.139,0 4.07,0.504 5.792,1.513 1.721,1.008 3.068,2.374 4.04,4.095 0.971,1.722 1.457,3.591 1.457,5.608 0,2.238 -0.511,4.206 -1.531,5.903 -1.021,1.697 -2.386,3.007 -4.095,3.93 z" /></g><g
           transform="translate(885.3809,108.6226)"
           id="g160"><path
             id="path162"
             style="fill:#002c84;fill-opacity:1;fill-rule:nonzero;stroke:none"
             d="m 0,0 c 0,-2.14 -0.517,-3.763 -1.55,-4.87 -1.032,-1.107 -2.447,-1.66 -4.242,-1.66 -1.82,0 -3.253,0.565 -4.299,1.697 -1.045,1.131 -1.567,2.767 -1.567,4.907 v 12.285 h -3.727 V 0 c 0,-3.246 0.849,-5.706 2.546,-7.379 1.697,-1.673 4.022,-2.509 6.973,-2.509 3.001,0 5.355,0.843 7.065,2.528 1.709,1.684 2.565,4.174 2.565,7.47 v 12.249 l -3.764,0 z" /></g><g
           transform="translate(885.3809,108.6226)"
           id="g164"><path
             id="path166"
             style="fill:none;stroke:#002c84;stroke-width:0.75;stroke-linecap:butt;stroke-linejoin:miter;stroke-miterlimit:10;stroke-dasharray:none;stroke-opacity:1"
             d="m 0,0 c 0,-2.14 -0.517,-3.763 -1.55,-4.87 -1.032,-1.107 -2.447,-1.66 -4.242,-1.66 -1.82,0 -3.253,0.565 -4.299,1.697 -1.045,1.131 -1.567,2.767 -1.567,4.907 v 12.285 h -3.727 V 0 c 0,-3.246 0.849,-5.706 2.546,-7.379 1.697,-1.673 4.022,-2.509 6.973,-2.509 3.001,0 5.355,0.843 7.065,2.528 1.709,1.684 2.565,4.174 2.565,7.47 v 12.249 l -3.764,0 z" /></g><g
           transform="translate(923.2344,113.567)"
           id="g168"><path
             id="path170"
             style="fill:#002c84;fill-opacity:1;fill-rule:nonzero;stroke:none"
             d="M 0,0 C 0,-1.305 -0.485,-2.331 -1.457,-3.081 -2.429,-3.832 -3.726,-4.206 -5.35,-4.206 h -4.611 v 8.485 h 4.649 c 1.647,0 2.945,-0.369 3.892,-1.106 C -0.474,2.435 0,1.389 0,0.036 Z m 1.347,5.516 c -1.562,1.266 -3.684,1.899 -6.365,1.899 h -8.67 v -21.878 h 3.727 v 7.269 h 4.649 c 2.705,0 4.881,0.645 6.53,1.936 1.647,1.291 2.471,3.105 2.471,5.442 v 0.037 c 0,2.262 -0.781,4.027 -2.342,5.295" /></g><g
           transform="translate(923.2344,113.567)"
           id="g172"><path
             id="path174"
             style="fill:none;stroke:#002c84;stroke-width:0.75;stroke-linecap:butt;stroke-linejoin:miter;stroke-miterlimit:10;stroke-dasharray:none;stroke-opacity:1"
             d="M 0,0 C 0,-1.305 -0.485,-2.331 -1.457,-3.081 -2.429,-3.832 -3.726,-4.206 -5.35,-4.206 h -4.611 v 8.485 h 4.649 c 1.647,0 2.945,-0.369 3.892,-1.106 C -0.474,2.435 0,1.389 0,0.036 Z m 1.347,5.516 c -1.562,1.266 -3.684,1.899 -6.365,1.899 h -8.67 v -21.878 h 3.727 v 7.269 h 4.649 c 2.705,0 4.881,0.645 6.53,1.936 1.647,1.291 2.471,3.105 2.471,5.442 v 0.037 c 0,2.262 -0.781,4.027 -2.342,5.295 z" /></g><g
           transform="translate(231.7778,211.0754)"
           id="g176"><path
             id="path178"
             style="fill:#8f8f8f;fill-opacity:1;fill-rule:nonzero;stroke:none"
             d="m 0,0 c 0.015,-6.826 0.033,-13.652 0.044,-20.478 0.013,-7.602 0.057,-15.205 -0.004,-22.807 -0.032,-4.075 -0.102,-8.146 0.14,-12.217 0.005,-0.003 0.007,-0.006 0.012,-0.009 0.071,-8.861 7.271,-16.024 16.149,-16.024 h 4.013 c 1.167,-0.026 2.334,-0.052 3.501,-0.052 19.214,-0.004 38.428,-0.002 57.642,0.005 1.075,0 2.151,0.027 3.227,0.047 h 0.306 c 11.248,0 20.366,9.119 20.366,20.367 v 0 c 0,0.906 -0.735,1.641 -1.642,1.641 H 25.955 c -0.005,0.007 -0.011,0.009 -0.016,0.016 -3.252,1.486 -4.822,4.034 -4.873,7.589 -0.032,2.265 -0.217,4.528 -0.222,6.792 -0.023,11.631 -0.017,23.262 -0.006,34.892" /></g><g
           transform="translate(296.4904,170.1327)"
           id="g180"><path
             id="path182"
             style="fill:#8f8f8f;fill-opacity:1;fill-rule:nonzero;stroke:none"
             d="m 0,0 h 37.649 c 1.61,0 2.916,1.306 2.916,2.916 v 15.347 c 0,1.61 -1.306,2.916 -2.916,2.916 H 0 c -1.611,0 -2.916,-1.306 -2.916,-2.916 V 2.916 C -2.916,1.306 -1.611,0 0,0" /></g><g
           transform="translate(336.7358,223.4863)"
           id="g184"><path
             id="path186"
             style="fill:#8f8f8f;fill-opacity:1;fill-rule:nonzero;stroke:none"
             d="m 0,0 h -104.991 v 0.226 c 0,8.206 6.652,14.859 14.859,14.859 h 75.273 C -6.652,15.085 0,8.432 0,0.226 Z" /></g><g
           transform="translate(374.2127,232.8001)"
           id="g188"><path
             id="path190"
             style="fill:#002c84;fill-opacity:1;fill-rule:nonzero;stroke:none"
             d="m 0,0 c 0,2.929 -2.343,5.304 -5.234,5.304 h -10.021 c -2.891,0 -5.234,-2.375 -5.234,-5.304 v -9.185 h 1.832 c 1.016,-0.011 2.032,-0.024 3.048,-0.032 4.521,-0.035 9.042,-0.072 13.563,-0.097 0.678,-0.003 1.357,0.059 2.035,0.091 v 0.038 H 0 Z" /></g><g
           transform="translate(451.7021,230.3215)"
           id="g192"><path
             id="path194"
             style="fill:#002c84;fill-opacity:1;fill-rule:nonzero;stroke:none"
             d="m 0,0 v 1.962 c 0,3.429 -2.743,6.209 -6.128,6.209 h -57.127 c -3.385,0 -6.128,-2.78 -6.128,-6.209 V -6.835 H 0 v 3.973 C 0.099,-1.908 0.081,-0.954 0,0" /></g><g
           transform="translate(554.9481,238.4928)"
           id="g196"><path
             id="path198"
             style="fill:#002c84;fill-opacity:1;fill-rule:nonzero;stroke:none"
             d="m 0,0 h -76.077 c -4.006,0 -7.254,-3.166 -7.254,-7.072 v -7.935 H 15.392 C 15.392,-6.719 8.501,0 0,0" /></g><g
           transform="translate(702.8405,238.3557)"
           id="g200"><path
             id="path202"
             style="fill:#002c84;fill-opacity:1;fill-rule:nonzero;stroke:none"
             d="m 0,0 h -10.021 c -3.191,0 -5.777,-2.842 -5.777,-6.348 v -8.521 H 5.777 v 4.625 c 0.034,0.753 0.035,1.505 0,2.254 v 1.642 C 5.777,-2.842 3.19,0 0,0" /></g><g
           transform="translate(770.1777,238.7297)"
           id="g204"><path
             id="path206"
             style="fill:#002c84;fill-opacity:1;fill-rule:nonzero;stroke:none"
             d="m 0,0 h -45.7 c -4.33,0 -7.839,-3.685 -7.839,-8.23 v -7.013 h 68.06 C 14.521,-6.825 8.02,0 0,0" /></g><g
           transform="translate(908.2169,238.8905)"
           id="g208"><path
             id="path210"
             style="fill:#002c84;fill-opacity:1;fill-rule:nonzero;stroke:none"
             d="m 0,0 h -84.388 c -4.676,0 -8.467,-3.458 -8.467,-7.724 v -7.68 H 15.684 v 1.097 C 15.684,-6.405 8.662,0 0,0" /></g><g
           transform="translate(613.1148,235.9258)"
           id="g212"><path
             id="path214"
             style="fill:#002c84;fill-opacity:1;fill-rule:nonzero;stroke:none"
             d="M 0,0 C 2.704,3.217 7.641,3.217 10.345,0 L 12.986,-3.143 20.8,-12.44 H 5.172 -10.455 l 7.814,9.297 z" /></g><g
           transform="translate(748.0239,180.0342)"
           id="g216"><path
             id="path218"
             style="fill:#002c84;fill-opacity:1;fill-rule:nonzero;stroke:none"
             d="m 0,0 c 0,0 -0.894,0.072 -1.045,0.199 -0.152,0.128 1.013,0.575 1.013,0.575 z" /></g><g
           transform="translate(705.7801,212.8505)"
           id="g220"><path
             id="path222"
             style="fill:#002c84;fill-opacity:1;fill-rule:nonzero;stroke:none"
             d="m 0,0 h -16.851 c -1.195,0 -2.163,-1.015 -2.163,-2.268 v -68.828 c 0,-1.253 0.968,-2.268 2.163,-2.268 H 0 c 1.195,0 2.163,1.015 2.163,2.268 V -2.268 C 2.163,-1.015 1.195,0 0,0" /></g><g
           transform="translate(490.8014,212.8505)"
           id="g224"><path
             id="path226"
             style="fill:#002c84;fill-opacity:1;fill-rule:nonzero;stroke:none"
             d="m 0,0 h -16.851 c -1.195,0 -2.163,-0.983 -2.163,-2.197 v -69.05 c 0,-1.213 0.968,-2.197 2.163,-2.197 H 0 c 1.195,0 2.163,0.984 2.163,2.197 v 69.05 C 2.163,-0.983 1.195,0 0,0" /></g><g
           transform="translate(836.7582,212.8505)"
           id="g228"><path
             id="path230"
             style="fill:#002c84;fill-opacity:1;fill-rule:nonzero;stroke:none"
             d="m 0,0 h -18.98 c -1.346,0 -2.436,-1.015 -2.436,-2.268 v -68.828 c 0,-1.253 1.09,-2.268 2.436,-2.268 H 0 c 1.346,0 2.436,1.015 2.436,2.268 V -2.268 C 2.436,-1.015 1.346,0 0,0" /></g><g
           transform="translate(373.0461,212.4226)"
           id="g232"><path
             id="path234"
             style="fill:#002c84;fill-opacity:1;fill-rule:nonzero;stroke:none"
             d="m 0,0 h -18.524 c -0.382,0 -0.692,-0.32 -0.692,-0.714 v -69.722 c 0,-1.381 1.084,-2.5 2.422,-2.5 H -1.73 c 1.338,0 2.422,1.119 2.422,2.5 V -0.714 C 0.692,-0.32 0.382,0 0,0" /></g><g
           transform="translate(447.2021,158.7249)"
           id="g236"><path
             id="path238"
             style="fill:#002c84;fill-opacity:1;fill-rule:nonzero;stroke:none"
             d="m 0,0 h -60.128 c -2.485,0 -4.5,-1.863 -4.5,-4.16 v -10.918 c 0,-1.087 0.462,-2.068 1.2,-2.809 0.179,-0.269 0.425,-0.481 0.769,-0.629 0.721,-0.455 1.592,-0.723 2.531,-0.723 H 0 c 2.485,0 4.5,1.863 4.5,4.161 V -4.16 C 4.5,-1.863 2.485,0 0,0" /></g><g
           transform="translate(784.8334,211.3136)"
           id="g240"><path
             id="path242"
             style="fill:#002c84;fill-opacity:1;fill-rule:nonzero;stroke:none"
             d="m 0,0 c -0.016,0.943 -0.801,1.691 -1.744,1.691 h -19.522 c 0,0 0.002,-0.068 0.004,-0.183 -0.001,0 -0.003,0 -0.004,0 -0.209,-0.463 0.024,-0.937 -0.032,-1.405 -0.176,-2.882 -1.129,-8.788 -5.936,-9.959 -4.272,-1.042 -20.279,-0.695 -30.48,-0.348 -5.684,0.194 -10.571,-4.115 -11.12,-9.866 -0.477,-4.992 0.137,-10.618 4.219,-13.901 0.09,-0.072 0.174,-0.154 0.245,-0.244 0.749,-0.946 1.518,-1.886 2.375,-2.726 2.978,-2.915 6.006,-5.778 9.01,-8.666 6.558,-6.306 12.761,-12.967 19.033,-19.559 0.528,-0.555 1.07,-1.094 1.609,-1.638 0.022,-0.022 0.044,-0.045 0.064,-0.068 l 4.362,-4.891 h 0.014 26.504 c 1.548,0 2.33,1.866 1.244,2.97 l -33.022,33.543 c -1.095,1.112 -0.296,2.985 1.264,2.969 C -21.591,-32.393 0.488,-29.225 0,0" /></g><g
           transform="translate(618.8652,166.4642)"
           id="g244"><path
             id="path246"
             style="fill:#002c84;fill-opacity:1;fill-rule:nonzero;stroke:none"
             d="m 0,0 h -17.54 c -1.344,0 -2.207,1.449 -1.584,2.658 L -1.292,37.23 c 0.295,0.57 1.109,0.574 1.409,0.007 L 18.373,2.674 C 19.012,1.464 18.149,0 16.797,0 Z m 57.44,-24.313 c -0.458,0.652 -1.517,2.44 -1.88,3.15 l -3.607,7.213 c -0.278,0.553 -0.554,1.106 -0.844,1.652 L 20.624,47.319 20.6,47.37 c -0.274,0.053 -3.129,0.035 -3.418,0.035 h -35.047 c -0.289,0 -3.572,-0.034 -3.846,-0.086 h -0.048 L -58.494,-24.48 c -0.615,-1.208 0.249,-2.649 1.588,-2.649 h 21.131 c 0.665,0 1.275,0.375 1.584,0.973 l 12.285,23.42 c 0.578,1.12 2.078,1.312 2.912,0.373 l 8.448,-9.514 8.989,-10.124 c 0.828,-0.933 2.286,-0.933 3.114,0 l 8.989,10.124 8.965,10.096 c 0.369,0.415 1.038,0.335 1.298,-0.156 l 12.993,-24.6 c 0.14,-0.263 0.412,-0.429 0.71,-0.431 l 21.409,-0.138 c 1.418,-0.009 2.281,1.58 1.519,2.793" /></g><g
           transform="translate(568.8821,212.9544)"
           id="g248"><path
             id="path250"
             style="fill:#002c84;fill-opacity:1;fill-rule:nonzero;stroke:none"
             d="m 0,0 h -16.129 c -1.905,0 -3.501,-1.51 -3.524,-3.414 -0.038,-3.105 -1.079,-7.418 -6.234,-8.88 -0.303,-0.086 -0.615,-0.121 -0.93,-0.121 -3.503,0 -25.802,0 -34.561,0 -1.948,0 -3.525,-1.579 -3.525,-3.526 v -12.256 c 0,-1.948 1.579,-3.526 3.526,-3.526 h 34.148 c 8.863,0 17.359,4.004 22.647,11.118 3.376,4.541 5.988,10.753 6.04,19.115 0,0.07 -0.004,0.142 -0.013,0.211 C 1.356,-0.548 0.736,0 0,0" /></g><g
           transform="translate(923.8956,178.6564)"
           id="g252"><path
             id="path254"
             style="fill:#002c84;fill-opacity:1;fill-rule:nonzero;stroke:none"
             d="M 0,0 V 32.43 H -25.298 V -6.052 c 0,-6.181 -0.74,-10.922 -7.716,-11.553 -2.255,-0.204 -9.35,-0.803 -12.374,-0.59 h -20.401 c -3.631,0 -6.575,-2.947 -6.575,-6.583 v -14.253 c 0.213,-0.024 0.424,-0.054 0.643,-0.054 10.675,0 36.565,0 42.399,0 1.027,0 2.052,0.068 3.063,0.227 C -19.341,-37.771 1.003,-30.156 0,0" /></g></g></g></g></svg>